<?xml version="1.0" encoding="UTF-8"?>
<svg width="610px" height="250px" viewBox="0 0 610 250" version="1.1" xmlns="http://www.w3.org/2000/svg" xmlns:xlink="http://www.w3.org/1999/xlink">
    <!-- Generator: Sketch 58 (84663) - https://sketch.com -->
    <title>Group</title>
    <desc>Created with Sketch.</desc>
    <defs>
        <path d="M155.067117,114.393056 L15.4626994,114.393056 C7.2703681,114.393056 0.62993865,107.61338 0.62993865,99.2492593 L0.62993865,15.4281019 C0.62993865,7.0650463 7.2703681,0.284305556 15.4626994,0.284305556 L155.067117,0.284305556 C163.259448,0.284305556 169.90092,7.0650463 169.90092,15.4281019 L169.90092,99.2492593 C169.90092,107.61338 163.259448,114.393056 155.067117,114.393056" id="path-1"></path>
        <path d="M0.0393816806,4.16974999 C2.58891236,1.75098653 6.03407585,0.267 9.826,0.267 L143.682,0.267 C147.47405,0.267 150.919549,1.75108472 153.469345,4.16999005 L85.724,63.78 C80.595,68.292 72.913,68.292 67.785,63.78 L0.0393816806,4.16974999" id="path-3"></path>
        <linearGradient x1="49.9996919%" y1="0%" x2="49.9996919%" y2="62.4256506%" id="linearGradient-5">
            <stop stop-color="#FAD32D" offset="0%"></stop>
            <stop stop-color="#F0AB2B" offset="100%"></stop>
        </linearGradient>
        <path d="M28.579,3.933 C30.987,6.173 32.689,5.423 36.304,17.795 C38.612,25.699 47.033,65.566 47.033,65.566 L42.003,67.749 C35.2,48.693 35.209,48.712 27.261,33.245 C23.41,25.754 21.794,18.354 21.794,18.354 L7.1,17.472 C-2.087,13.696 1.062,0.288 1.062,0.288 C1.062,0.288 26.172,1.693 28.579,3.933" id="path-6"></path>
        <linearGradient x1="100.002151%" y1="50.0007412%" x2="0.000648360247%" y2="50.0007412%" id="linearGradient-8">
            <stop stop-color="#141C28" offset="0%"></stop>
            <stop stop-color="#303439" offset="100%"></stop>
        </linearGradient>
        <path d="M3.917,9.081 L17.175,0.59 L30.001,10.553 L45.977,15.713 L45.89,15.762 C52.315,17.991 59.652,21.243 61.904,23.338 C64.313,25.578 69.056,28.758 65.23,41.065 C62.786,48.93 52.131,88.768 52.131,88.768 L46.731,87.807 C46.731,87.807 48.649,64.724 50.57,47.455 C51.502,39.084 51.818,36.749 51.818,36.749 C51.818,36.749 16.148,40.638 4.657,34.569 C-3.387,30.32 3.917,15.517 3.917,9.081" id="path-9"></path>
        <linearGradient x1="100.000564%" y1="50%" x2="0.000897051338%" y2="50%" id="linearGradient-11">
            <stop stop-color="#141C28" offset="0%"></stop>
            <stop stop-color="#303439" offset="100%"></stop>
        </linearGradient>
    </defs>
    <g id="Page-1" stroke="none" stroke-width="1" fill="none" fill-rule="evenodd">
        <g id="2451376" transform="translate(-70.000000, -131.000000)">
            <g id="Group" transform="translate(70.247000, 131.448883)">
                <path d="M111.697,49.8621167 C111.628,50.1411167 116.173,47.3191167 116.173,47.3191167 L118.094,44.3401167 C118.094,44.3401167 119.973,43.1271167 121.318,42.4731167 C122.664,41.8191167 125.139,37.7941167 125.139,37.7941167 L124.16,36.5651167 C124.16,36.5651167 122.748,38.2881167 122.284,38.5681167 C121.819,38.8481167 120.875,38.6141167 120.875,38.6141167 C120.875,38.6141167 121.204,37.3641167 121.959,35.5771167 C122.712,33.7901167 125.005,30.9041167 125.005,30.9041167 L124.143,30.0001167 C124.143,30.0001167 122.764,31.3071167 122.267,31.9641167 C121.77,32.6211167 120.816,34.0011167 120.816,34.0011167 C120.816,34.0011167 121.807,31.5721167 122.421,30.6651167 C123.035,29.7581167 123.7,28.5301167 123.7,28.5301167 L122.704,27.8381167 C122.704,27.8381167 121.538,29.2771167 120.938,30.3541167 C120.337,31.4311167 119.227,33.2181167 119.227,33.2181167 C119.227,33.2181167 120.072,30.4741167 120.49,29.6861167 C120.907,28.8981167 121.064,28.4911167 121.064,28.4911167 L119.882,28.0871167 C119.882,28.0871167 119.006,29.1521167 118.485,30.5831167 C117.964,32.0151167 117.585,32.6461167 117.585,32.6461167 C117.585,32.6461167 117.933,30.3361167 118.325,29.6531167 C118.717,28.9691167 118.73,28.6941167 118.73,28.6941167 L117.771,28.5121167 C117.771,28.5121167 115.93,31.9021167 114.965,34.0041167 C114,36.1051167 113.244,38.9441167 112.697,40.4801167 C112.149,42.0161167 111.443,47.2501167 111.443,47.2501167 L111.697,49.8621167" id="Fill-3" fill="#F0C2AC"></path>
                <path d="M140.047,69.9881167 L116.752,65.9761167 C116.752,65.9761167 116.121,60.4531167 116.499,54.0381167 C116.91,47.0651167 117.765,45.1241167 117.765,45.1241167 L111.513,44.2591167 C111.513,44.2591167 110.279,49.7491167 109.394,53.6951167 C107.431,62.4451167 105.637,70.6411167 107.135,72.4681167 C109.311,75.1181167 128.696,80.5151167 135.329,85.4891167 C139.321,88.4831167 139.088,78.8991167 140.047,69.9881167" id="Fill-4" fill="#5DA4CE"></path>
                <path d="M171.443,74.8091167 C169.648,74.1461167 163.791,74.5791167 163.791,74.5791167 C163.791,74.5791167 163.238,80.8331167 165.617,85.6631167 C167.996,90.4931167 173.894,108.089117 174.641,109.741117 C175.388,111.393117 173.077,136.225117 173.077,136.225117 L181.634,134.470117 C181.634,134.470117 185.758,115.320117 185.727174,110.452117 C185.695,105.585117 181.14,87.3641167 177.903,81.5561167 C174.666,75.7481167 175.799,76.4181167 171.443,74.8091167" id="Fill-5" fill="#5DA4CE"></path>
                <path d="M157.345,56.8971167 C157.345,56.8971167 155.462,65.1541167 156.935,67.0741167 C157.798,68.2001167 161.457,72.2101167 161.457,72.2101167 C161.457,72.2101167 149.335,78.6101167 145.772,78.6101167 C142.208,78.6101167 143.457,71.4621167 143.457,71.4621167 C143.457,71.4621167 147.343,68.3901167 147.922,66.8391167 C148.501,65.2861167 148.824,60.7931167 148.824,60.7931167 L157.345,56.8971167" id="Fill-6" fill="#F4BFA7"></path>
                <path d="M158.763,57.2041167 C158.763,57.2041167 158.625,54.1971167 161.144,54.2741167 C162.752,54.3231167 162.877,55.7971167 161.624,57.6981167 C161.096,58.4991167 161.044,60.3101167 160.388,60.8921167 C159.592,61.6001167 158.926,60.5081167 158.684,60.0101167 C158.283,59.1871167 158.763,57.2041167 158.763,57.2041167" id="Fill-7" fill="#F0C2AC"></path>
                <path d="M145.191,57.2041167 C145.191,57.2041167 145.33,54.1971167 142.81,54.2741167 C141.202,54.3231167 141.077,55.7971167 142.33,57.6981167 C142.858,58.4991167 142.911,60.3101167 143.566,60.8921167 C144.362,61.6001167 145.028,60.5081167 145.271,60.0101167 C145.671,59.1871167 145.191,57.2041167 145.191,57.2041167" id="Fill-8" fill="#F0C2AC"></path>
                <path d="M161.316,49.8441167 C161.255,50.8191167 161.061,51.4531167 160.808,52.9031167 C160.748,53.2521167 160.683,53.6511167 160.617,54.1141167 C160.096,57.7231167 159.436,62.6311167 159.151,63.3631167 C158.68,64.5771167 156.102,66.5441167 154.878,67.2631167 C153.653,67.9831167 150.574,67.8361167 149.35,67.1161167 C148.126,66.3961167 145.355,64.5771167 144.885,63.3631167 C144.596,62.6171167 143.912,57.5681167 143.387,53.8991167 C143.328,53.4801167 143.27,53.1191167 143.214,52.8001167 C142.967,51.3701167 142.777,50.8051167 142.717,49.8441167 C142.53,46.7951167 145.962,42.3601167 152.018,42.3601167 C159.181,42.3601167 161.506,46.7951167 161.316,49.8441167" id="Fill-9" fill="#F0C2AC"></path>
                <path d="M156.844,46.4071167 C154.642,45.4091167 152.549,45.0951167 150.786,45.0951167 C147.792,45.0951167 145.752,46.0021167 145.752,46.0021167 C145.752,46.0021167 146.911,43.4821167 151.389,43.4491167 C151.434,43.4491167 151.479,43.4481167 151.524,43.4481167 C155.928,43.4481167 158.981,45.0461167 158.981,45.0461167 L156.844,46.4071167" id="Fill-10" fill="#D59D98"></path>
                <path d="M160.808,52.9031167 C160.749,53.2521167 160.683,53.6511167 160.617,54.1141167 C160.097,57.7231167 159.437,62.6311167 159.151,63.3631167 C158.681,64.5771167 156.102,66.5441167 154.878,67.2631167 C153.653,67.9831167 150.574,67.8361167 149.35,67.1161167 C148.126,66.3961167 145.356,64.5771167 144.885,63.3631167 C144.596,62.6171167 143.912,57.5681167 143.387,53.8991167 C143.327,53.4801167 143.27,53.1191167 143.214,52.8001167 L143.709,52.0621167 C143.709,52.0621167 144.6,57.2951167 145.966,58.9201167 C147.33,60.5431167 147.591,60.6191167 147.591,60.6191167 C147.591,60.6191167 149.079,60.2521167 150.385,59.9291167 L150.608,59.8731167 C151.685,59.6101167 152.794,59.6141167 153.867,59.8991167 L154.044,59.9471167 L154.248,60.0071167 L156.363,60.6191167 C156.363,60.6191167 156.856,60.5431167 158.222,58.9201167 C159.588,57.2951167 160.246,52.0621167 160.246,52.0621167 L160.808,52.9031167" id="Fill-11" fill="#662920"></path>
                <path d="M161.756,47.8921167 C161.736,47.9921167 161.244,51.5571167 161.043,52.1211167 C160.733,52.9851167 160.496,53.6091167 160.496,53.6091167 L160.129,52.8121167 C159.449,51.3331167 159.081,49.7311167 159.046,48.1031167 L158.981,45.0461167 L159.998,44.1471167 C162.002,44.4461167 162.217,45.6071167 161.756,47.8921167" id="Fill-12" fill="#662920"></path>
                <path d="M145.874,45.2041167 L145.872,45.2181167 L145.384,48.3631167 C145.158,49.8221167 144.662,51.2251167 143.922,52.5021167 L143.88,52.5741167 L143.325,53.5311167 C143.325,53.5311167 143.162,52.9751167 142.935,52.1851167 C142.767,51.6031167 142.353,48.6221167 142.253,48.2011167 C142.221,48.0701167 142.193,47.9421167 142.169,47.8181167 C141.742,45.5811167 142.159,44.6441167 144.143,44.3461167 L145.874,45.2041167" id="Fill-13" fill="#662920"></path>
                <path d="M159.998,44.1471167 L158.981,45.0461167 L157.045,45.7421167 C156.811,45.5031167 153.281,44.2801167 150.22,44.5161167 C146.337,44.8151167 145.808,45.9321167 145.752,46.0021167 L145.75,46.0061167 L145.349,45.9181167 L143.442,45.5011167 L143.053,45.4151167 C143.053,45.4151167 143.497,43.7341167 143.814,43.2581167 C145.341,40.9561167 149.495,39.4671167 153.27,39.8501167 C153.397,39.8621167 153.523,39.8761167 153.649,39.8941167 C157.174,40.3591167 158.791,42.0201167 158.791,42.0201167 L159.998,44.1471167" id="Fill-14" fill="#662920"></path>
                <path d="M169.447,240.039117 L169.447,247.600117 L154.916,247.600117 C154.916,247.600117 155.462,244.863117 162.354,243.600117 L163.367,240.039117 L169.447,240.039117" id="Fill-15" fill="#19313F"></path>
                <path d="M147.346,240.039117 L147.346,247.600117 L132.815,247.600117 C132.815,247.600117 133.361,244.863117 140.252,243.600117 L141.266,240.039117 L147.346,240.039117" id="Fill-16" fill="#19313F"></path>
                <path d="M167.005,127.486117 C167.005,127.486117 169.039,151.840117 169.11,171.700117 C169.182,191.561117 170.364,241.770117 170.364,241.770117 L162.344,241.770117 C162.344,241.770117 154.074,193.546117 151.068,180.779117 C148.062,168.012117 140.246,127.725117 140.246,127.725117 L167.005,127.486117" id="Fill-17" fill="#19313F"></path>
                <path d="M149.565,153.639117 C149.565,153.639117 148.062,183.900117 147.761,189.858117 C147.461,195.817117 147.761,241.740117 147.761,241.740117 C147.761,241.740117 140.246,241.944117 140.246,241.740117 C140.246,241.537117 133.16,192.835117 132.242,178.154117 C131.324,163.472117 131.862,146.068117 130.643,144.037117 C129.424,142.007117 133.933,127.582117 133.933,127.582117 L144.571,130.420117 L149.565,153.639117" id="Fill-18" fill="#19313F"></path>
                <path d="M146.293,68.7201167 C146.293,68.7201167 142.959,76.2781167 147.976,77.1131167 C155.948,78.4401167 158.377,68.2401167 158.377,68.2401167 L167.167,72.7661167 C167.167,72.7661167 167.005,127.486117 170.46,144.189117 C172.465,153.888117 139.085,149.265117 134.188,140.656117 C129.95,133.205117 142.193,71.2881167 142.193,71.2881167 L146.293,68.7201167" id="Fill-19" fill="#FFFFFE"></path>
                <path d="M160.442,69.1861167 C160.2,69.5211167 148.413,104.030117 152.422,136.506117 C153.357,144.080117 167.167,137.814117 170.46,137.814117 C170.46,137.814117 172.026,113.575117 172.41,104.561117 C172.794,95.5471167 168.497,92.5841167 168.88,88.1731167 C169.264,83.7621167 174.059,75.8991167 174.059,75.8991167 L160.442,69.1861167" id="Fill-20" fill="#5DA4CE"></path>
                <path d="M140.733,139.945117 C142.081,117.367117 142.633,70.1071167 142.633,70.1071167 L134.668,69.5141167 C134.668,69.5141167 130.682,109.153117 130.624,113.660117 C130.6,115.451117 131.16,137.219117 129.95,141.293117 C132.637,141.696117 140.571,142.665117 140.733,139.945117" id="Fill-21" fill="#5DA4CE"></path>
                <path d="M227.173,55.9481167 C220.92,58.0981167 214.357,60.3631167 209.189,64.8971167 C205.1,68.5001167 202.137,73.8151167 202.124,79.2691167 C202.124,80.7411167 202.345,82.2211167 202.826,83.6621167 C203.641,86.0981167 205.329,88.1311167 207.396,89.5631167 C209.466,90.9941167 211.928,91.8411167 214.375,91.8431167 C216.467,91.8461167 218.563,91.2051167 220.271,89.7521167 C221.815,88.4291167 222.925,86.4621167 222.939,84.3641167 C222.939,83.6511167 222.801,82.9251167 222.492,82.2371167 C222.028,81.1931167 221.282,80.4001167 220.394,79.9111167 C219.506,79.4191167 218.503,79.2181167 217.485,79.2171167 C215.968,79.2201167 214.395,79.6541167 212.932,80.3561167 C211.471,81.0611167 210.119,82.0371167 209.076,83.1951167 C205.765,86.8841167 203.457,91.7321167 203.451,96.7491167 C203.451,97.6081167 203.519,98.4721167 203.664,99.3331167 C204.166,102.309117 205.695,105.093117 207.858,107.162117 C210.019,109.228117 212.847,110.592117 215.933,110.593117 L215.933,110.350117 L215.93,110.593117 L215.933,110.593117 L215.933,110.350117 L215.93,110.593117 L215.942,110.593117 C217.233,110.590117 218.544,110.218117 219.803,109.631117 C221.69,108.747117 223.47,107.371117 224.823,105.823117 C225.498,105.047117 226.066,104.227117 226.477,103.384117 C226.885,102.542117 227.143,101.672117 227.145,100.791117 C227.146,100.149117 226.999,99.4981167 226.668,98.9151167 C226.339,98.3311167 225.835,97.8311167 225.198,97.4481167 C224.056,96.7551167 222.82,96.4361167 221.596,96.4381167 C220.03,96.4391167 218.496,96.9401167 217.046,97.7341167 C214.87,98.9291167 212.852,100.792117 211.115,102.872117 C209.38,104.953117 207.934,107.250117 206.958,109.352117 C205.956,111.511117 205.472,113.891117 205.471,116.262117 C205.472,118.852117 206.049,121.437117 207.192,123.724117 C208.335,126.008117 210.053,127.998117 212.324,129.343117 C214.046,130.357117 216.195,130.757117 218.414,130.761117 C221.312,130.757117 224.344,130.065117 226.744,128.868117 C227.944,128.265117 228.99,127.536117 229.774,126.650117 C230.553,125.771117 231.078,124.691117 231.077,123.497117 C231.078,122.660117 230.815,121.805117 230.31,120.997117 C229.763,120.117117 229.052,119.445117 228.237,119.015117 C227.422,118.582117 226.52,118.393117 225.607,118.394117 C224.124,118.397117 222.599,118.871117 221.106,119.631117 C218.868,120.776117 216.688,122.582117 214.919,124.664117 C213.154,126.749117 211.794,129.103117 211.293,131.435117 C211.105,132.321117 211.016,133.215117 211.016,134.104117 C211.019,137.649117 212.427,141.100117 214.705,143.791117 C216.983,146.479117 220.158,148.427117 223.746,148.865117 C224.16,148.915117 224.583,148.939117 225.014,148.939117 C228.426,148.928117 232.332,147.497117 235.494,145.443117 C237.072,144.411117 238.459,143.219117 239.484,141.917117 C240.503,140.618117 241.185,139.185117 241.19,137.665117 C241.197,136.444117 240.707,135.217117 239.736,134.203117 C238.422,132.799117 236.821,132.097117 235.207,132.106117 C233.362,132.111117 231.592,132.947117 229.97,134.234117 C227.537,136.175117 225.368,139.186117 223.767,142.563117 C222.172,145.942117 221.151,149.685117 221.147,153.133117 C221.148,154.687117 221.357,156.183117 221.837,157.555117 C223.101,161.159117 225.658,164.024117 228.795,165.977117 C231.934,167.931117 235.662,168.993117 239.362,168.995117 C243.19,168.995117 247.01,167.847117 250.043,165.308117 C250.81,164.665117 251.553,163.892117 252.126,162.993117 C252.695,162.096117 253.101,161.054117 253.102,159.911117 C253.102,159.689117 253.086,159.464117 253.054,159.238117 C252.943,158.461117 252.646,157.760117 252.218,157.179117 C251.575,156.305117 250.667,155.702117 249.673,155.316117 C248.677,154.931117 247.582,154.753117 246.489,154.752117 C245.467,154.753117 244.445,154.908117 243.502,155.223117 C240.385,156.265117 237.883,158.438117 236.169,161.115117 C234.454,163.796117 233.509,166.990117 233.507,170.169117 C233.506,173.052117 234.293,175.936117 236.036,178.357117 C238.874,182.287117 243.62,184.205117 248.312,184.206117 C252.882,184.205117 257.499,182.384117 260.344,178.615117 C261.266,177.380117 262.085,175.845117 262.095,174.113117 C262.095,173.757117 262.058,173.394117 261.977,173.033117 C261.683,171.723117 260.844,170.688117 259.813,170.006117 C258.777,169.322117 257.535,168.956117 256.283,168.954117 C255.913,168.954117 255.541,168.987117 255.174,169.056117 C253.805,169.313117 252.595,169.952117 251.56,170.778117 C250.524,171.604117 249.654,172.619117 248.939,173.677117 C246.959,176.611117 246.025,180.093117 246.024,183.574117 C246.028,189.018117 248.304,194.507117 252.624,197.980117 C255.811,200.534117 259.836,201.762117 263.852,201.762117 C268.765,201.761117 273.708,199.928117 277.148,196.300117 C277.863,195.544117 278.533,194.672117 279.037,193.700117 C279.539,192.730117 279.878,191.650117 279.879,190.505117 C279.879,190.169117 279.85,189.828117 279.787,189.488117 C279.501,187.949117 278.558,186.698117 277.365,185.852117 C276.167,185.002117 274.702,184.523117 273.22,184.520117 L273.059,184.522117 L273.061,184.522117 C271.594,184.557117 270.212,184.994117 268.972,185.658117 C267.731,186.324117 266.623,187.217117 265.673,188.203117 C262.656,191.338117 261.284,195.543117 261.285,199.753117 C261.286,203.252117 262.224,206.775117 263.993,209.781117 C265.761,212.785117 268.376,215.281117 271.721,216.637117 C273.326,217.287117 275.117,217.567117 276.977,217.567117 C281.497,217.560117 286.462,215.931117 290.388,213.498117 C292.35,212.278117 294.052,210.853117 295.294,209.280117 C296.531,207.710117 297.327,205.964117 297.33,204.129117 C297.335,202.629117 296.77,201.120117 295.62,199.787117 C295.125,199.208117 294.558,198.764117 293.941,198.470117 C293.325,198.176117 292.664,198.039117 292.008,198.040117 C290.601,198.045117 289.247,198.636117 287.993,199.529117 C286.113,200.878117 284.41,202.952117 283.137,205.275117 C281.871,207.600117 281.033,210.170117 281.028,212.575117 C281.028,213.073117 281.065,213.565117 281.145,214.046117 C281.7,217.371117 283.643,220.203117 286.231,222.195117 C288.823,224.188117 292.077,225.368117 295.371,225.371117 C296.479,225.371117 297.591,225.236117 298.68,224.950117 C301.677,224.153117 304.858,222.078117 307.377,219.530117 C308.633,218.253117 309.718,216.855117 310.504,215.411117 C311.287,213.967117 311.782,212.469117 311.784,210.981117 C311.796,209.400117 311.17,207.828117 309.832,206.653117 C308.984,205.891117 307.946,205.517117 306.926,205.524117 C305.763,205.527117 304.65,205.958117 303.615,206.606117 C302.064,207.584117 300.651,209.075117 299.499,210.729117 C298.351,212.386117 297.469,214.200117 297.066,215.888117 C296.858,216.762117 296.76,217.650117 296.76,218.536117 C296.761,220.852117 297.431,223.143117 298.618,225.121117 C299.806,227.097117 301.517,228.768117 303.625,229.806117 C305.516,230.736117 307.55,231.133119 309.585,231.133119 C313.313,231.129117 317.056,229.823117 320.233,227.967117 C325.109,225.105117 329.042,221.135117 333.488,218.169117 C340.021,213.796117 347.908,211.476117 355.776,211.477117 C358.63,211.477117 361.48,211.782117 364.263,212.402117 L364.698,210.450117 C361.768,209.797117 358.772,209.477117 355.776,209.477117 C347.516,209.478117 339.257,211.904117 332.376,216.507117 C327.716,219.635117 323.805,223.568117 319.223,226.241117 C316.287,227.962117 312.836,229.137117 309.585,229.133117 C307.807,229.133117 306.09,228.789117 304.507,228.011117 C302.782,227.163117 301.34,225.769117 300.333,224.091117 C299.325,222.415117 298.759,220.463117 298.76,218.536117 C298.76,217.799117 298.842,217.066117 299.012,216.350117 C299.434,214.540117 300.689,212.227117 302.241,210.457117 C303.014,209.569117 303.859,208.813117 304.679,208.299117 C305.5,207.782117 306.281,207.521117 306.926,207.524117 C307.496,207.531117 307.98,207.692117 308.502,208.148117 C309.424,208.983117 309.772,209.881117 309.784,210.981117 C309.787,212.010117 309.423,213.216117 308.747,214.456117 C307.738,216.317117 306.046,218.233117 304.121,219.784117 C302.2,221.338117 300.04,222.528117 298.172,223.015117 C297.258,223.256117 296.317,223.371117 295.371,223.371117 C292.561,223.373117 289.7,222.345117 287.451,220.611117 C285.198,218.876117 283.574,216.464117 283.118,213.717117 C283.058,213.356117 283.028,212.974117 283.028,212.575117 C283.015,210.003117 284.316,206.745117 286.16,204.230117 C287.077,202.971117 288.124,201.893117 289.156,201.156117 C290.19,200.413117 291.195,200.034117 292.008,200.040117 C292.392,200.041117 292.74,200.115117 293.082,200.277117 C293.423,200.439117 293.763,200.694117 294.102,201.088117 C294.985,202.128117 295.324,203.117117 295.33,204.129117 C295.333,205.361117 294.779,206.704117 293.723,208.042117 C292.149,210.047117 289.484,211.963117 286.445,213.339117 C283.409,214.721117 280.001,215.570117 276.977,215.567117 C275.318,215.568117 273.778,215.314117 272.472,214.783117 C269.589,213.615117 267.298,211.450117 265.717,208.767117 C264.137,206.085117 263.283,202.892117 263.285,199.753117 C263.285,195.966117 264.515,192.288117 267.114,189.590117 C267.942,188.730117 268.898,187.966117 269.917,187.421117 C270.937,186.875117 272.012,186.547117 273.108,186.521117 L273.11,186.521117 L273.22,186.520117 C274.259,186.517117 275.357,186.875117 276.206,187.481117 C277.059,188.090117 277.647,188.915117 277.82,189.851117 C277.86,190.068117 277.879,190.286117 277.879,190.505117 C277.88,191.247117 277.655,192.020117 277.261,192.780117 C276.868,193.540117 276.31,194.277117 275.696,194.925117 C272.699,198.096117 268.274,199.764117 263.852,199.762117 C260.24,199.763117 256.657,198.653117 253.876,196.420117 C250.098,193.399117 248.021,188.469117 248.024,183.574117 C248.024,180.449117 248.866,177.359117 250.596,174.796117 C251.22,173.871117 251.97,173.008117 252.807,172.341117 C253.645,171.674117 254.56,171.206117 255.544,171.021117 C255.783,170.976117 256.031,170.954117 256.283,170.954117 C257.135,170.952117 258.024,171.217117 258.707,171.673117 C259.395,172.132117 259.863,172.746117 260.025,173.470117 C260.072,173.681117 260.095,173.895117 260.095,174.113117 C260.105,175.161117 259.532,176.377117 258.745,177.413117 C256.37,180.579117 252.368,182.207117 248.312,182.206117 C244.147,182.207117 240.028,180.490117 237.659,177.188117 C236.193,175.152117 235.508,172.694117 235.507,170.169117 C235.505,167.390117 236.347,164.544117 237.853,162.194117 C239.361,159.841117 241.515,157.995117 244.136,157.120117 C244.851,156.880117 245.673,156.752117 246.489,156.752117 C247.654,156.750117 248.801,157.018117 249.621,157.502117 C250.033,157.744117 250.364,158.033117 250.605,158.362117 C250.847,158.693117 251.007,159.064117 251.074,159.522117 C251.093,159.653117 251.102,159.782117 251.102,159.911117 C251.103,160.567117 250.865,161.248117 250.437,161.920117 C250.013,162.590117 249.406,163.234117 248.759,163.775117 C246.14,165.968117 242.799,166.994117 239.362,166.995117 C236.047,166.996117 232.661,166.031117 229.852,164.280117 C227.041,162.527117 224.815,160.007117 223.725,156.893117 C223.335,155.782117 223.147,154.507117 223.147,153.133117 C223.138,149.067117 224.818,144.183117 227.232,140.409117 C228.435,138.521117 229.819,136.908117 231.215,135.800117 C232.614,134.685117 234.001,134.101117 235.207,134.106117 C236.264,134.115117 237.254,134.503117 238.283,135.577117 C238.95,136.293117 239.183,136.950117 239.19,137.665117 C239.195,138.550117 238.762,139.603117 237.912,140.681117 C236.647,142.298117 234.501,143.901117 232.125,145.058117 C229.751,146.222117 227.142,146.943117 225.014,146.939117 C224.657,146.939117 224.313,146.919117 223.987,146.879117 C220.98,146.517117 218.229,144.856117 216.231,142.498117 C214.232,140.142117 213.013,137.110117 213.016,134.104117 C213.016,133.349117 213.092,132.595117 213.25,131.850117 C213.764,129.366117 215.727,126.404117 218.17,124.156117 C219.388,123.029117 220.719,122.073117 222.015,121.412117 C223.31,120.749117 224.566,120.390117 225.607,120.393117 C226.252,120.394117 226.81,120.522117 227.3,120.782117 C227.789,121.043117 228.226,121.438117 228.612,122.054117 C228.953,122.605117 229.075,123.071117 229.077,123.497117 C229.075,124.096117 228.826,124.696117 228.274,125.327117 C227.453,126.268117 225.959,127.164117 224.178,127.780117 C222.4,128.403117 220.343,128.762117 218.414,128.761117 C216.442,128.765117 214.611,128.379117 213.343,127.622117 C211.439,126.494117 209.976,124.815117 208.981,122.829117 C207.987,120.844117 207.471,118.554117 207.471,116.262117 C207.471,114.163117 207.903,112.065117 208.772,110.194117 C209.959,107.629117 211.996,104.617117 214.345,102.305117 C215.518,101.148117 216.768,100.166117 218.007,99.4881167 C219.248,98.8071167 220.467,98.4361167 221.596,98.4381167 C222.483,98.4401167 223.324,98.6551167 224.164,99.1601167 C224.553,99.3961167 224.781,99.6431167 224.927,99.9001167 C225.072,100.157117 225.143,100.440117 225.145,100.791117 C225.15,101.424117 224.869,102.277117 224.315,103.167117 C223.492,104.504117 222.092,105.903117 220.539,106.927117 C218.99,107.959117 217.283,108.600117 215.94,108.593117 L215.941,109.593117 L215.952,108.593117 L215.933,108.593117 C213.451,108.594117 211.098,107.491117 209.24,105.716117 C207.384,103.946117 206.055,101.516117 205.636,99.0021167 C205.511,98.2541167 205.451,97.5021167 205.451,96.7491167 C205.444,92.3631167 207.517,87.9171167 210.564,84.5321167 C211.398,83.6011167 212.558,82.7541167 213.8,82.1581167 C215.04,81.5591167 216.361,81.2151167 217.485,81.2171167 C218.242,81.2171167 218.9,81.3681167 219.423,81.6601167 C219.945,81.9541167 220.358,82.3761167 220.667,83.0551167 C220.852,83.4691167 220.938,83.9051167 220.939,84.3641167 C220.953,85.7051167 220.132,87.2581167 218.976,88.2281167 C217.661,89.3421167 216.073,89.8411167 214.375,89.8431167 C212.398,89.8461167 210.292,89.1391167 208.534,87.9191167 C206.774,86.7011167 205.373,84.9851167 204.724,83.0301167 C204.315,81.8031167 204.125,80.5421167 204.124,79.2691167 C204.112,74.5671167 206.778,69.6671167 210.509,66.3991167 C215.273,62.2041167 221.567,59.9791167 227.822,57.8401167 L227.173,55.9481167" id="Fill-22" fill="#FFFFFE"></path>
                <path d="M543.06,89.4761167 C532.931,83.0111167 442.64,159.128117 445.949,219.264117 C445.949,219.264117 463.526,195.526117 478.848,183.958117 C494.168,172.389117 495.662,160.280117 495.633,148.286117 C495.603,136.293117 518.517,141.246117 521.097,127.944117 C525.663,104.403117 552.176,95.2951167 543.06,89.4761167" id="Fill-23" fill="#4AA57C"></path>
                <path d="M548.991,145.503117 C534.405,154.338117 538.698,166.115117 530.098,172.996117 C523.844,177.999117 513.405,175.381117 508.203,182.193117 C502.339,189.872117 509.007,200.440117 509.5,209.694117 C510.181,222.476117 498.78,232.060117 487.195,235.943117 C473.742,240.450117 456.332,239.041117 448.968,225.665117 C440.276,209.876117 446.783,186.073117 462.032,178.658117 C465.735,176.857117 470.44,176.368117 473.466,172.722117 C478.574,166.567117 475.295,157.714117 477.66,149.886117 C479.967,142.256117 487.51,136.890117 494.46,134.512117 C501.41,132.134117 508.487,131.652117 515.279,128.894117 C524.527,125.139117 532.626,116.884117 540.326,111.317117 C547.195,106.351117 571.31,97.0321167 575.232,113.317117 C578.806,128.154117 561.245,138.082117 548.991,145.503117" id="Fill-24" fill="#35897C"></path>
                <path d="M550.271,121.324117 C550.2,121.358117 490.48,151.398117 442.853,248.194117 L443.75,248.636117 C467.509,200.351117 494.268,168.740117 515.08,149.202117 C525.486,139.433117 534.405,132.682117 540.718,128.376117 C543.874,126.223117 546.379,124.681117 548.093,123.679117 C548.95,123.177117 549.609,122.811117 550.052,122.570117 C550.274,122.450117 550.442,122.361117 550.554,122.303117 C550.666,122.244117 550.72,122.218117 550.72,122.217117 L550.271,121.324117" id="Fill-25" fill="#1E3B49"></path>
                <path d="M586.508,166.430117 L586.382,166.429117 C582.918,166.429117 508.139,167.264117 445.759,238.817117 L446.513,239.474117 C508.612,168.233117 583.06,167.430117 586.382,167.429117 L586.496,167.430117 L586.508,166.430117" id="Fill-26" fill="#FFFFFE"></path>
                <path d="M548.485,201.114117 C541.179,204.038117 539.197,216.357117 531.328,217.920117 C525.607,219.057117 519.498,213.989117 513.906,216.618117 C507.605,219.582117 508.714,228.468117 506.138,234.505117 C502.578,242.845117 492.003,245.212117 483.093,243.898117 C472.748,242.373117 461.633,235.798117 460.941,224.902117 C460.125,212.040117 471.915,199.047117 484.365,199.312117 C487.39,199.376117 490.666,200.601117 493.818,199.273117 C499.142,197.030117 499.742,190.338117 503.77,186.139117 C507.695,182.046117 514.387,181.099117 519.747,181.856117 C525.107,182.613117 529.957,184.615117 535.331,185.079117 C542.649,185.711117 550.615,183.112117 557.475,182.088117 C563.593,181.175117 588.586,181.656117 580.02,194.744117 C574.088,203.807117 558.223,197.218117 548.485,201.114117" id="Fill-27" fill="#4AA57C"></path>
                <path d="M564.207,188.547117 C564.146,188.552117 510.797,193.103117 448.777,239.055117 L449.372,239.858117 C480.283,216.955117 509.027,204.375117 530.037,197.521117 C540.542,194.095117 549.113,192.099117 555.055,190.961117 C558.025,190.392117 560.338,190.037117 561.907,189.825117 C562.691,189.719117 563.289,189.648117 563.69,189.604117 C564.091,189.560117 564.291,189.543117 564.291,189.543117 L564.207,188.547117" id="Fill-28" fill="#1E3B49"></path>
                <path d="M390.727,246.299117 C390.727,246.299117 402.846,225.083117 404.821,222.896117 C417.286,209.098117 433.822,208.946117 450.656,212.430117 C455.527,213.439117 468.422,220.213117 473.101,219.277117 C476.745,218.547117 481.12,204.696117 492.784,205.425117 C504.449,206.154117 505.151,220.005117 505.151,220.005117 C505.151,220.005117 512.469,203.911117 524.133,205.397117 C535.798,206.883117 535.798,217.747117 527.049,225.802117 C527.049,225.802117 545.64,220.225117 563.684,228.864117 C581.727,237.503117 573.108,248.832117 573.108,248.832117 L390.727,246.299117" id="Fill-29" fill="#35897C"></path>
                <path d="M66.446,89.4761167 C76.575,83.0111167 166.866,159.128117 163.557,219.264117 C163.557,219.264117 145.98,195.526117 130.659,183.958117 C115.338,172.389117 113.843,160.280117 113.873,148.286117 C113.903,136.293117 90.99,141.246117 88.409,127.944117 C83.842,104.403117 57.33,95.2951167 66.446,89.4761167" id="Fill-30" fill="#4AA57C"></path>
                <path d="M60.514,145.503117 C75.101,154.338117 70.807,166.115117 79.408,172.996117 C85.662,177.999117 96.101,175.381117 101.303,182.193117 C107.167,189.872117 100.499,200.440117 100.006,209.694117 C99.325,222.476117 110.725,232.060117 122.311,235.943117 C135.763,240.450117 153.173,239.041117 160.538,225.665117 C169.23,209.876117 162.723,186.073117 147.474,178.658117 C143.77,176.857117 139.066,176.368117 136.04,172.722117 C130.932,166.567117 134.211,157.714117 131.845,149.886117 C129.54,142.256117 121.996,136.890117 115.046,134.512117 C108.096,132.134117 101.018,131.652117 94.227,128.894117 C84.979,125.139117 76.88,116.884117 69.18,111.317117 C62.311,106.351117 38.196,97.0321167 34.274,113.317117 C30.7,128.154117 48.261,138.082117 60.514,145.503117" id="Fill-31" fill="#35897C"></path>
                <path d="M58.786,122.218117 C58.786,122.218117 58.839,122.244117 58.951,122.303117 C62.424,124.117117 119.724,155.087117 165.755,248.636117 L166.652,248.194117 C119.026,151.398117 59.306,121.358117 59.235,121.324117 L58.786,122.218117" id="Fill-32" fill="#1E3B49"></path>
                <path d="M23.01,167.430117 L23.124,167.429117 C26.446,167.430117 100.894,168.233117 162.994,239.474117 L163.748,238.817117 C101.367,167.265117 26.587,166.429117 23.124,166.429117 L22.998,166.430117 L23.01,167.430117" id="Fill-33" fill="#FFFFFE"></path>
                <path d="M61.021,201.114117 C68.327,204.038117 70.309,216.357117 78.177,217.920117 C80.731,218.427117 83.362,217.699117 85.99,216.970117 C89.249,216.066117 92.503,215.163117 95.599,216.618117 C101.902,219.582117 100.791,228.468117 103.369,234.505117 C106.927,242.845117 117.504,245.212117 126.413,243.898117 C136.758,242.373117 147.874,235.798117 148.565,224.902117 C149.381,212.040117 137.591,199.047117 125.14,199.312117 C122.116,199.376117 118.84,200.601117 115.688,199.273117 C110.364,197.029117 109.763,190.338117 105.736,186.139117 C101.811,182.046117 95.119,181.099117 89.759,181.856117 C84.398,182.613117 79.549,184.616117 74.175,185.079117 C66.857,185.711117 58.891,183.112117 52.031,182.088117 C45.913,181.175117 20.921,181.656117 29.486,194.744117 C33.038,200.171117 40.153,199.985117 47.38,199.800117 C52.222,199.676117 57.115,199.551117 61.021,201.114117" id="Fill-34" fill="#4AA57C"></path>
                <path d="M45.214,189.543117 C45.214,189.543117 45.415,189.560117 45.816,189.604117 C51.833,190.263117 102.177,196.915117 160.135,239.858117 L160.73,239.055117 C98.709,193.103117 45.36,188.552117 45.299,188.547117 L45.214,189.543117" id="Fill-35" fill="#1E3B49"></path>
                <path d="M218.779,246.299117 C218.779,246.299117 206.661,225.083117 204.685,222.896117 C192.22,209.098117 175.684,208.946117 158.85,212.430117 C153.979,213.439117 141.084,220.213117 136.405,219.277117 C132.76,218.547117 128.386,204.696117 116.721,205.425117 C105.057,206.154117 104.354,220.005117 104.354,220.005117 C104.354,220.005117 97.038,203.911117 85.373,205.397117 C73.709,206.883117 73.709,217.747117 82.457,225.802117 C82.457,225.802117 63.866,220.225117 45.823,228.863117 C27.779,237.503117 36.397,248.832117 36.397,248.832117 L218.779,246.299117" id="Fill-36" fill="#35897C"></path>
                <path d="M349.376,248.147117 L330.518,248.147117 C328.437,248.147117 326.702,246.551117 326.53,244.477117 L325.295,229.588117 L354.599,229.588117 L353.363,244.477117 C353.191,246.551117 351.457,248.147117 349.376,248.147117" id="Fill-37" fill="#1D2344"></path>
                <path d="M460.728,248.147117 L441.87,248.147117 C439.788,248.147117 438.055,246.551117 437.883,244.477117 L436.648,229.588117 L465.95,229.588117 L464.715,244.477117 C464.543,246.551117 462.81,248.147117 460.728,248.147117" id="Fill-38" fill="#1D2344"></path>
                <path d="M463.997,210.053117 L327.249,210.053117 L336.918,139.555117 C337.673,134.056117 342.371,129.957117 347.923,129.957117 L443.323,129.957117 C448.874,129.957117 453.572,134.056117 454.327,139.555117 L463.997,210.053117" id="Fill-39" fill="#DC3D47"></path>
                <path d="M445.542,196.377117 L345.704,196.377117 L352.796,125.555117 C353.323,120.290117 357.753,116.282117 363.044,116.282117 L428.202,116.282117 C433.492,116.282117 437.922,120.290117 438.449,125.555117 L445.542,196.377117" id="Fill-40" fill="#DC3D47"></path>
                <polyline id="Fill-41" fill="#2D6E64" points="463.997 210.053117 461.802 194.048117 463.997 210.053117"></polyline>
                <polyline id="Fill-42" fill="#BD2F39" points="463.997 210.053117 327.249 210.053117 329.444 194.048117 345.937 194.048117 345.704 196.377117 445.542 196.377117 445.309 194.048117 461.802 194.048117 463.997 210.053117"></polyline>
                <polyline id="Fill-43" fill="#BD2F39" points="445.542 196.377117 345.704 196.377117 345.937 194.048117 445.309 194.048117 445.542 196.377117"></polyline>
                <polyline id="Fill-44" fill="#DC3D47" points="478.798 237.403117 312.448 237.403117 315.527 201.262117 475.718 201.262117 478.798 237.403117"></polyline>
                <path d="M395.633,190.796117 C383.585,190.796117 372.179,183.595117 367.397,171.736117 C361.11,156.147117 368.651,138.413117 384.24,132.127117 C387.97,130.623117 391.823,129.911117 395.613,129.911117 C407.661,129.911117 419.067,137.112117 423.849,148.971117 C430.135,164.560117 422.594,182.293117 407.005,188.579117 C403.275,190.083117 399.422,190.796117 395.633,190.796117" id="Fill-45" fill="#BD2F39"></path>
                <path d="M420.028,150.511117 C425.464,163.990117 418.943,179.323117 405.465,184.759117 C391.985,190.195117 376.652,183.674117 371.217,170.196117 C365.781,156.716117 372.302,141.383117 385.781,135.947117 C399.26,130.512117 414.593,137.032117 420.028,150.511117" id="Fill-46" fill="#FFFFFE"></path>
                <path d="M402.978,181.995117 C402.07,181.995117 401.191,181.634117 400.558,181.000117 C400.401,180.844117 400.254,180.668117 400.137,180.473117 C400.01,180.287117 399.902,180.093117 399.815,179.887117 C399.736,179.682117 399.669,179.468117 399.62,179.253117 C399.581,179.029117 399.552,178.804117 399.552,178.579117 C399.552,177.682117 399.923,176.803117 400.558,176.169117 C401.348,175.378117 402.528,175.007117 403.641,175.232117 C403.857,175.280117 404.071,175.339117 404.276,175.427117 C404.49,175.514117 404.686,175.622117 404.872,175.739117 C405.057,175.866117 405.232,176.012117 405.389,176.169117 C406.024,176.803117 406.394,177.682117 406.394,178.579117 C406.394,178.804117 406.364,179.029117 406.325,179.253117 C406.276,179.468117 406.209,179.682117 406.131,179.887117 C406.042,180.093117 405.936,180.287117 405.818,180.473117 C405.691,180.668117 405.545,180.844117 405.389,181.000117 C405.232,181.156117 405.057,181.293117 404.872,181.420117 C404.686,181.547117 404.49,181.654117 404.276,181.732117 C404.071,181.820117 403.857,181.889117 403.641,181.928117 C403.417,181.976117 403.192,181.995117 402.978,181.995117" id="Fill-47" fill="#ACADA9"></path>
                <path d="M397.862,144.270117 C395.998,144.006117 394.701,142.279117 394.964,140.405117 C395.228,138.540117 396.955,137.233117 398.819,137.505117 C400.693,137.760117 401.992,139.496117 401.728,141.362117 C401.484,143.070117 400.02,144.299117 398.351,144.299117 C398.185,144.299117 398.028,144.289117 397.862,144.270117 Z M385.086,143.411117 C384.374,141.664117 385.223,139.672117 386.97,138.970117 C388.717,138.257117 390.708,139.107117 391.421,140.854117 C392.123,142.601117 391.284,144.592117 389.526,145.305117 C389.117,145.471117 388.678,145.549117 388.249,145.549117 C386.901,145.549117 385.622,144.748117 385.086,143.411117 Z M405.613,147.549117 C404.119,146.388117 403.857,144.240117 405.018,142.757117 C406.17,141.264117 408.316,141.000117 409.811,142.152117 C411.294,143.314117 411.567,145.460117 410.406,146.954117 C409.732,147.813117 408.727,148.272117 407.711,148.272117 C406.97,148.272117 406.237,148.028117 405.613,147.549117 Z M378.029,150.947117 C376.545,149.784117 376.272,147.638117 377.434,146.154117 C378.596,144.660117 380.742,144.397117 382.227,145.558117 C383.72,146.720117 383.983,148.867117 382.821,150.351117 C382.149,151.220117 381.143,151.669117 380.127,151.669117 C379.396,151.669117 378.653,151.434117 378.029,150.947117 Z M375.677,161.000117 C373.813,160.737117 372.505,159.009117 372.768,157.135117 C373.041,155.271117 374.769,153.963117 376.633,154.236117 C378.507,154.499117 379.796,156.227117 379.542,158.092117 C379.298,159.800117 377.834,161.030117 376.155,161.030117 C375.999,161.030117 375.833,161.020117 375.677,161.000117 Z M374.232,168.985117 C373.52,167.238117 374.369,165.245117 376.116,164.543117 C377.863,163.830117 379.855,164.680117 380.566,166.427117 C381.27,168.174117 380.42,170.165117 378.673,170.878117 C378.253,171.044117 377.824,171.122117 377.395,171.122117 C376.048,171.122117 374.759,170.322117 374.232,168.985117 Z M381.406,178.530117 L381.406,178.530117 C379.922,177.369117 379.659,175.222117 380.82,173.729117 C381.982,172.245117 384.119,171.982117 385.613,173.143117 C387.097,174.304117 387.36,176.451117 386.199,177.935117 C385.525,178.804117 384.52,179.253117 383.505,179.253117 C382.773,179.253117 382.031,179.019117 381.406,178.530117 Z M392.388,183.197117 L392.388,183.197117 C390.523,182.933117 389.225,181.205117 389.487,179.331117 C389.752,177.467117 391.48,176.169117 393.353,176.432117 C395.218,176.705117 396.516,178.433117 396.253,180.298117 C396.009,182.006117 394.545,183.236117 392.865,183.236117 C392.71,183.236117 392.554,183.226117 392.388,183.197117 L392.388,183.197117 Z" id="Fill-48" fill="#ACADA9"></path>
                <path d="M413.851,156.422117 C413.627,156.422117 413.402,156.393117 413.188,156.354117 C412.964,156.305117 412.748,156.246117 412.543,156.159117 C412.338,156.071117 412.143,155.963117 411.958,155.846117 C411.763,155.720117 411.597,155.573117 411.431,155.417117 C410.796,154.782117 410.435,153.905117 410.435,153.006117 C410.435,152.781117 410.454,152.557117 410.503,152.332117 C410.542,152.117117 410.611,151.903117 410.698,151.697117 C410.786,151.493117 410.884,151.288117 411.012,151.103117 C411.138,150.917117 411.274,150.741117 411.431,150.585117 C411.597,150.429117 411.763,150.282117 411.958,150.165117 C412.133,150.039117 412.338,149.931117 412.543,149.843117 C412.748,149.765117 412.964,149.697117 413.188,149.658117 C414.29,149.434117 415.472,149.795117 416.263,150.585117 C416.429,150.741117 416.565,150.917117 416.691,151.103117 C416.818,151.288117 416.916,151.493117 417.004,151.697117 C417.092,151.903117 417.16,152.117117 417.199,152.332117 C417.248,152.557117 417.268,152.781117 417.268,153.006117 C417.268,153.905117 416.897,154.782117 416.263,155.417117 C415.628,156.051117 414.75,156.422117 413.851,156.422117" id="Fill-49" fill="#ACADA9"></path>
                <path d="M356.381,49.4991167 C356.381,49.4991167 352.764,41.6831167 359.313,34.2331167 C359.313,34.2331167 384.061,50.2671167 411.721,45.7441167 C411.721,45.7441167 414.754,54.0861167 406.251,61.8121167 C406.251,61.8121167 376.643,67.4261167 356.381,49.4991167" id="Fill-50" fill="#C5313C"></path>
                <path d="M398.745,14.0021167 C380.938,-1.01488328 347.201,-3.12588328 304.502,3.74911672 C267.784,9.66011672 230.388,23.5291167 217.906,43.1181167 C212.221,52.0391167 216.082,76.8191167 216.082,76.8191167 C249.906,78.9321167 262.295,49.8531167 262.295,49.8531167 C262.295,49.8531167 260.033,41.6031167 267.611,37.9561167 C294.127,25.1961167 335.238,20.8371167 350.531,24.6051167 C358.696,26.6171167 359.313,34.2331167 359.313,34.2331167 C359.313,34.2331167 380.202,57.9541167 411.654,45.3311167 C411.654,45.3311167 406.832,20.8221167 398.745,14.0021167" id="Fill-51" fill="#DC3D47"></path>
                <path d="M269.206,63.1441167 C269.206,63.1441167 270.187,54.5881167 261.631,49.5701167 C261.631,49.5701167 243.167,72.5621167 215.484,76.9491167 C215.484,76.9491167 215.222,85.8211167 225.721,90.4881167 C225.721,90.4881167 255.595,86.5251167 269.206,63.1441167" id="Fill-52" fill="#C5313C"></path>
                <g id="Group-57" transform="translate(106.753000, 133.551117)">
                    <g id="Group-56">
                        <mask id="mask-2" fill="white">
                            <use xlink:href="#path-1"></use>
                        </mask>
                        <g id="Clip-54"></g>
                        <path d="M155.067117,114.393056 L15.4626994,114.393056 C7.2703681,114.393056 0.62993865,107.61338 0.62993865,99.2492593 L0.62993865,15.4281019 C0.62993865,7.0650463 7.2703681,0.284305556 15.4626994,0.284305556 L155.067117,0.284305556 C163.259448,0.284305556 169.90092,7.0650463 169.90092,15.4281019 L169.90092,99.2492593 C169.90092,107.61338 163.259448,114.393056 155.067117,114.393056" id="Fill-53" fill="#FAD32D" mask="url(#mask-2)"></path>
                        <path d="M85.1752147,81.776713 C82.4155828,81.776713 79.6569939,80.8375463 77.3865031,78.9581481 L10.5087117,23.6048148 L10.5087117,18.790787 C10.5087117,15.9583796 11.2721472,13.3059259 12.599816,11.0378704 L75.9107362,67.9138889 C78.5848466,70.3161111 81.9253988,71.5172222 85.264908,71.5172222 C88.6054601,71.5172222 91.9449693,70.3161111 94.6201227,67.9138889 L165.274417,4.44027778 C167.597055,6.68916667 169.206319,9.69726852 169.722577,13.0748611 C169.839387,13.8415278 169.90092,14.6284259 169.90092,15.4281019 L92.9545399,78.9666667 C90.685092,80.8407407 87.9306748,81.776713 85.1752147,81.776713 M0.634110429,15.4323611 L0.62993865,15.4281019 C0.62993865,11.1017593 2.40607362,7.19921296 5.25539877,4.44027778 L5.25644172,4.44027778 C2.40920245,7.19921296 0.634110429,11.1006944 0.634110429,15.427037 L0.634110429,15.4323611" id="Fill-55" fill="#F1AE2A" mask="url(#mask-2)"></path>
                    </g>
                </g>
                <g id="Group-59" transform="translate(118.753000, 140.551117)">
                    <mask id="mask-4" fill="white">
                        <use xlink:href="#path-3"></use>
                    </mask>
                    <g id="Clip-58"></g>
                    <path d="M143.682,107.43 L9.826,107.43 C1.971,107.43 -4.396,101.063 -4.396,93.208 L-4.396,14.489 C-4.396,6.635 1.971,0.267 9.826,0.267 L143.682,0.267 C151.537,0.267 157.905,6.635 157.905,14.489 L157.905,93.208 C157.905,101.063 151.537,107.43 143.682,107.43" id="Fill-57" fill="url(#linearGradient-5)" mask="url(#mask-4)"></path>
                </g>
                <path d="M325.226,75.9911167 C325.226,75.9911167 329.845,62.6611167 330.169,61.1941167 C332.083,52.5311167 332.604,33.7531167 332.483,29.7591167 C332.363,25.7661167 331.991,22.2591167 331.913,21.7221167 C331.835,21.1851167 329.356,18.5171167 329.348,18.5551167 L328.577,18.6371167 L328.548,19.1381167 L327.477,18.2161167 L326.585,18.1661167 L326.49,18.5841167 L325.217,17.9731167 L323.99,17.9511167 C323.99,17.9511167 324.781,20.4861167 325.232,22.0281167 C325.684,23.5691167 325.213,23.6961167 325.213,23.6961167 C325.213,23.6961167 324.227,24.0711167 323.838,23.9511167 C323.449,23.8311167 322.096,23.8761167 322.096,23.8761167 C322.096,23.8761167 325.824,28.7281167 325.996,29.1771167 C326.168,29.6281167 328.291,31.8351167 327.496,36.1971167 C326.073,44.0071167 322.185,55.6051167 322.185,55.6051167 C322.3,55.3331167 317.165,69.9921167 317.165,69.9921167 L325.226,75.9911167" id="Fill-63" fill="#F4BFA7"></path>
                <path d="M322.744,93.6351167 C324.174,82.4161167 329.915,69.3151167 329.915,69.3151167 C329.915,69.3151167 321.142,67.5781167 318.875,64.4581167 C318.875,64.4581167 315.852,71.8421167 314.112,75.5141167 C312.188,79.5791167 309.489,84.0041167 312.881,86.4181167 C316.155,88.7481167 322.246,97.5431167 322.744,93.6351167" id="Fill-64" fill="#5DA4CE"></path>
                <path d="M289.117,240.888117 L289.117,248.100117 L302.979,248.100117 C302.979,248.100117 302.457,245.489117 295.884,244.284117 L294.917,240.888117 L289.117,240.888117" id="Fill-65" fill="#19313F"></path>
                <path d="M310.199,240.888117 L310.199,248.100117 L324.062,248.100117 C324.062,248.100117 323.54,245.489117 316.966,244.284117 L316,240.888117 L310.199,240.888117" id="Fill-66" fill="#19313F"></path>
                <path d="M291.446,133.522117 C291.446,133.522117 289.506,153.676117 289.439,172.621117 C289.37,191.567117 288.242,242.539117 288.242,242.539117 L295.893,242.539117 C295.893,242.539117 303.781,193.461117 306.649,181.281117 C309.517,169.103117 316.972,133.750117 316.972,133.750117 L291.446,133.522117" id="Fill-67" fill="#19313F"></path>
                <path d="M303.208,66.6801167 C303.208,66.6801167 302.713,70.5361167 302.307,72.4981167 C301.901,74.4611167 301.562,75.4951167 301.263,76.0941167 C300.6,77.4231167 296.53,81.4691167 296.53,81.4691167 C296.53,81.4691167 309.215,88.1661167 312.943,88.1661167 C316.673,88.1661167 315.365,80.6851167 315.365,80.6851167 C315.365,80.6851167 311.299,77.4711167 310.693,75.8481167 C310.088,74.2241167 309.75,69.5211167 309.75,69.5211167 L303.208,66.6801167" id="Fill-68" fill="#F4BFA7"></path>
                <path d="M308.083,155.393117 C308.083,155.393117 309.517,187.336117 309.803,193.020117 C310.09,198.703117 309.803,242.511117 309.803,242.511117 C309.803,242.511117 316.972,242.705117 316.972,242.511117 C316.972,242.317117 323.732,192.782117 324.607,178.778117 C325.483,164.773117 324.97,148.170117 326.133,146.234117 C327.296,144.296117 322.994,133.614117 322.994,133.614117 L312.847,133.243117 L308.083,155.393117" id="Fill-69" fill="#19313F"></path>
                <path d="M299.114,77.6981167 C299.114,77.6981167 288.405,73.4011167 286.633,76.9291167 C285.295,79.5951167 286.446,96.7311167 287.041,101.520117 C287.559,105.685117 290.442,140.727117 290.442,140.727117 C290.442,140.727117 294.446,146.929117 313.709,144.459117 C321.138,143.507117 324.79,139.887117 324.79,139.887117 C324.79,139.887117 322.707,98.0741167 322.134,93.8801167 C321.561,89.6841167 319.577,83.1361167 319.577,83.1361167 L313.844,79.3611167 C313.844,79.3611167 315.671,83.3981167 310.497,84.5481167 C300.068,86.8651167 299.114,77.6981167 299.114,77.6981167" id="Fill-70" fill="#5DA4CE"></path>
                <path d="M313.346,52.1011167 C314.561,52.5881167 316.683,53.6831167 316.92,54.6961167 C317.157,55.7081167 318.018,58.6471167 318.13,60.4271167 C318.241,62.2081167 318.496,65.5741167 318.494012,67.6721167 C318.493,69.7701167 317.226,74.0141167 316.746,74.4631167 C316.268,74.9111167 312.746,75.6421167 311.554,75.3011167 C310.362,74.9611167 303.373,71.3451167 302.934,66.9181167 C302.934,66.9181167 301.694,67.5701167 299.416,63.8761167 C298.821,62.9131167 300.872,55.7561167 301.148,54.4811167 C301.816,51.3811167 309.461,53.8231167 311.176,53.3341167 C312.892,52.8451167 313.346,52.1011167 313.346,52.1011167" id="Fill-71" fill="#F4BFA7"></path>
                <path d="M316.92,54.6961167 C316.92,54.6961167 311.564,58.0491167 309.475,58.2211167 C307.385,58.3941167 304.317,61.2661167 304.373,62.1561167 C304.429,63.0471167 303.492,63.6591167 303.492,63.6591167 C303.492,63.6591167 302.191,61.5871167 301.126,61.8031167 C299.015,62.2301167 300.255,64.8331167 301.401,65.4051167 C302.547,65.9781167 303.66,66.3301167 303.66,66.3301167 C303.66,66.3301167 303.852,67.5741167 303.76,68.5631167 C303.668,69.5511167 302.868,71.1771167 302.868,71.1771167 C302.868,71.1771167 300.395,65.9721167 298.178,64.0301167 C292.909,59.4121167 296.723,50.8311167 301.915,49.2191167 C304.011,48.5681167 309.768,48.1361167 312.57,49.3921167 C316.321,51.0731167 316.92,54.6961167 316.92,54.6961167" id="Fill-72" fill="#19313F"></path>
                <path d="M302.772,62.6291167 L305.7,62.0301167 L306.69,60.5851167 C306.69,60.5851167 305.565,60.7451167 303.707,61.1581167 C302.825,61.3541167 301.943,61.9891167 301.943,61.9891167 C301.943,61.9891167 302.371,62.1851167 302.772,62.6291167 Z M307.225,61.3041167 C307.401,61.0181167 309.176,60.7761167 310.511,60.6121167 C311.845,60.4471167 312.289,60.3921167 312.517,60.8621167 C312.6,61.0351167 312.719,61.7141167 312.685,62.5771167 C312.65,63.4401167 312.481,64.1961167 310.4,64.5711167 C308.934,64.8361167 308.223,64.4281167 307.616,63.3311167 C307.09,62.3771167 307.047,61.5901167 307.225,61.3041167 Z M314.861,60.4501167 C314.915,59.9311167 314.955,59.9891167 316.266,59.6891167 C317.576,59.3891167 317.714,59.4471167 317.979,59.6561167 C318.242,59.8651167 318.436,60.6901167 318.303,61.7711167 C318.231,62.3541167 318.111,63.1011167 317.038,63.2891167 C315.885,63.4911167 315.614,62.9201167 315.288,62.1201167 C314.962,61.3201167 314.842,60.6411167 314.861,60.4501167 Z M305.7,62.0301167 C305.778,62.2401167 306.326,62.2781167 306.428,62.3221167 C306.648,62.4201167 306.552,62.4521167 307.517,63.9281167 C308.228,65.0161167 309.42,65.3671167 311.648,64.6231167 C313.349,64.0541167 313.112,62.5921167 313.232,61.8951167 C313.353,61.1981167 313.5,61.0811167 313.771,61.0341167 C314.036,60.9891167 314.19,61.0511167 314.54,61.6651167 C314.892,62.2801167 315.054,63.8631167 316.829,63.5961167 C318.056,63.4121167 318.378,63.0741167 318.544,62.1051167 C318.692,61.2431167 318.732,60.3941167 318.684,59.7581167 C318.636,59.1161167 318.622,58.7251167 318.296,58.6911167 C317.894,58.6491167 317.366,58.7581167 316.837,58.8511167 C315.776,59.0371167 315.014,59.0581167 314.439,59.4751167 C313.864,59.8911167 313.927,60.1461167 313.625,60.2031167 C313.316,60.2621167 313.263,59.9971167 312.581,59.8011167 C311.899,59.6051167 309.072,60.1011167 308.013,60.2871167 C306.952,60.4731167 305.497,60.8711167 305.526,61.2721167 C305.543,61.4871167 305.608,61.7851167 305.7,62.0301167 L305.7,62.0301167 Z" id="Fill-73" fill="#1D2344"></path>
                <path d="M279.682,77.2161167 C279.682,77.2161167 277.149,61.1651167 277.124,59.6631167 C276.979,50.7931167 281.475,38.8761167 282.391,34.9871167 C283.306,31.0981167 283.916,31.7131167 284.1,31.2021167 C284.284,30.6911167 290.726,29.7051167 290.726,29.7051167 C290.726,29.7051167 292.458,28.9821167 292.862,28.9421167 C293.267,28.9021167 294.967,28.3941167 294.967,28.3941167 L293.978,30.1721167 C293.978,30.1721167 289.962,33.2261167 289.704,33.6321167 C289.445,34.0391167 286.924,35.7781167 286.832,40.2111167 C286.667,48.1471167 286.692,56.7451167 286.692,56.7451167 C286.633,56.4551167 290.492,73.1811167 290.492,73.1811167 L279.682,77.2161167" id="Fill-74" fill="#F4BFA7"></path>
                <path d="M287.041,101.520117 C284.315,93.7841167 278.08,73.0091167 278.08,73.0091167 C278.08,73.0091167 287.351,70.6761167 289.966,67.8411167 C289.966,67.8411167 293.094,77.1311167 294.394,80.9811167 C295.832,85.2421167 297.997,89.9521167 294.347,91.9541167 C290.823,93.8871167 288.35,105.235117 287.041,101.520117" id="Fill-75" fill="#5DA4CE"></path>
                <g id="Group-78" transform="translate(437.753000, 110.551117)">
                    <mask id="mask-7" fill="white">
                        <use xlink:href="#path-6"></use>
                    </mask>
                    <g id="Clip-77"></g>
                    <path d="M28.579,3.933 C30.987,6.173 32.689,5.423 36.304,17.795 C38.612,25.699 47.033,65.566 47.033,65.566 L42.003,67.749 C35.2,48.693 35.209,48.712 27.261,33.245 C23.41,25.754 21.794,18.354 21.794,18.354 L7.1,17.472 C-2.087,13.696 1.062,0.288 1.062,0.288 C1.062,0.288 26.172,1.693 28.579,3.933" id="Fill-76" fill="url(#linearGradient-8)" mask="url(#mask-7)"></path>
                </g>
                <g id="Group-81" transform="translate(406.753000, 93.551117)">
                    <mask id="mask-10" fill="white">
                        <use xlink:href="#path-9"></use>
                    </mask>
                    <g id="Clip-80"></g>
                    <path d="M3.917,9.081 L17.175,0.59 L30.001,10.553 L45.977,15.713 L45.89,15.762 C52.315,17.991 59.652,21.243 61.904,23.338 C64.313,25.578 69.056,28.758 65.23,41.065 C62.786,48.93 52.131,88.768 52.131,88.768 L46.731,87.807 C46.731,87.807 48.649,64.724 50.57,47.455 C51.502,39.084 51.818,36.749 51.818,36.749 C51.818,36.749 16.148,40.638 4.657,34.569 C-3.387,30.32 3.917,15.517 3.917,9.081" id="Fill-79" fill="url(#linearGradient-11)" mask="url(#mask-10)"></path>
                </g>
                <path d="M459.26,179.432117 C459.26,179.432117 459.103,180.882117 456.78,181.536117 C454.456,182.190117 452.876,180.271117 452.876,180.271117 L452.361,185.007117 L459.78,190.239117 L465.943,190.239117 L462.608,186.538117 L459.26,179.432117" id="Fill-82" fill="#19313F"></path>
                <path d="M483.991,172.869117 C483.991,172.869117 485.085,174.901117 483.07,176.231117 C481.057,177.561117 478.967,176.214117 478.967,176.214117 L479.919,180.882117 L497.44,175.402117 L483.991,172.869117" id="Fill-83" fill="#19313F"></path>
                <path d="M463.822,54.8511167 C463.794,55.1031167 460.903,51.3771167 460.903,51.3771167 L460.23,48.3271167 C460.23,48.3271167 459.05,46.7491167 458.139,45.7961167 C457.227,44.8431167 456.416,40.7581167 456.416,40.7581167 L457.602,40.0431167 C457.602,40.0431167 458.24,41.8991167 458.538,42.2731167 C458.836,42.6461167 459.689,42.7431167 459.689,42.7431167 C459.689,42.7431167 459.799,41.6091167 459.724,39.9011167 C459.649,38.1941167 458.64,35.1051167 458.64,35.1051167 L459.629,34.6231167 C459.629,34.6231167 460.368,36.1261167 460.577,36.8221167 C460.786,37.5171167 461.151,38.9491167 461.151,38.9491167 C461.151,38.9491167 461.077,36.6381167 460.848,35.7011167 C460.618,34.7631167 460.445,33.5441167 460.445,33.5441167 L461.481,33.2781167 C461.481,33.2781167 462.003,34.8241167 462.169,35.8991167 C462.335,36.9731167 462.704,38.7901167 462.704,38.7901167 C462.704,38.7901167 462.847,36.2631167 462.743,35.4841167 C462.64,34.7051167 462.636,34.3211167 462.636,34.3211167 L463.735,34.3491167 C463.735,34.3491167 464.134,35.4981167 464.125,36.8401167 C464.116,38.1831167 464.236,38.8201167 464.236,38.8201167 C464.236,38.8201167 464.657,36.8041167 464.543,36.1201167 C464.429,35.4351167 464.503,35.2041167 464.503,35.2041167 L465.35,35.3481167 C465.35,35.3481167 465.831,38.7131167 465.984,40.7451167 C466.138,42.7781167 465.893,45.3551167 465.873,46.7921167 C465.855,48.2291167 465.818,49.3521167 465.818,49.3521167 L463.822,54.8511167" id="Fill-84" fill="#F4BFA7"></path>
                <path d="M441.357,58.7901167 C448.194,64.4071167 455.031,68.5581167 455.031,68.5581167 C455.031,68.5581167 457.574,62.1781167 458.787,57.6581167 C460.235,52.2611167 460.66,49.7741167 460.66,49.7741167 L465.818,49.3521167 C465.818,49.3521167 464.184,63.1551167 462.154,72.5181167 C460.181,81.6191167 457.701,79.9931167 455.52,79.5471167 C453.339,79.1011167 432.81,68.0701167 432.81,68.0701167 L435.008,56.3481167 C435.008,56.3481167 436.469,54.7751167 441.357,58.7901167" id="Fill-85" fill="#F4BFA7"></path>
                <path d="M419.663,25.6421167 C420.76,25.0151167 426.063,24.5801167 429.384,26.6251167 C435.732,30.5341167 432.685,41.2471167 432.288,43.7151167 C431.891,46.1831167 434.168,50.6281167 434.131,53.5741167 C434.093,56.5211167 433.391,57.5891167 431.191,60.4431167 C430.539,61.2891167 430.371,62.7201167 430.371,62.7201167 C430.371,62.7201167 427.937,59.0811167 427.416,54.0121167 C426.896,48.9441167 425.818,50.1261167 423.283,44.5591167 C420.749,38.9921167 420.637,30.6091167 420.637,30.6091167 L419.663,25.6421167" id="Fill-86" fill="#351B19"></path>
                <path d="M424.944,29.2741167 L419.663,25.6421167 C419.663,25.6421167 415.151,25.0391167 412.533,29.0521167 C409.914,33.0651167 409.001,38.8761167 408.412,43.2411167 C407.823,47.6081167 406.285,55.8151167 406.391,59.0721167 C406.496,62.3271167 410.451,62.7711167 410.451,62.7711167 L423.718,57.0311167 C423.718,57.0311167 422.149,50.0551167 423.595,42.6201167 C425.042,35.1851167 424.944,29.2741167 424.944,29.2741167" id="Fill-87" fill="#351B19"></path>
                <path d="M429.363,30.3841167 C429.639,32.0351167 430.918,36.8851167 431.046,39.9961167 C431.174,43.1071167 430.804,48.2321167 428.742,49.6471167 C426.682,51.0611167 422.813,49.9321167 419.982,48.7601167 C417.149,47.5891167 416.465,45.6021167 415.912,43.7761167 C415.359,41.9501167 415.555,37.1011167 416.201,33.6261167 C416.848,30.1511167 419.054,28.7521167 421.61,28.2731167 C424.167,27.7941167 429.363,30.3841167 429.363,30.3841167" id="Fill-88" fill="#F4BFA7"></path>
                <path d="M417.792,41.9601167 C417.792,41.9601167 418.517,49.6921167 416.89,53.3311167 C415.768,55.8421167 411.222,56.9071167 411.222,56.9071167 C411.222,56.9071167 411.051,63.8621167 415.613,70.5751167 C420.175,77.2891167 434.441,79.7741167 434.441,79.7741167 C434.441,79.7741167 437.228,74.1691167 438.7,67.8871167 C440.172,61.6061167 436.187,56.7531167 436.187,56.7531167 C436.187,56.7531167 432.33,55.4911167 430.48,54.7941167 C425.984,53.1011167 426.511,45.9561167 426.511,45.9561167 L417.792,41.9601167" id="Fill-89" fill="#F4BFA7"></path>
                <path d="M426.46,59.8811167 C426.46,59.8811167 417.237,57.5381167 414.466,55.7391167 L405.319,61.1751167 C405.319,61.1751167 399.947,66.3031167 409.116,79.7781167 C409.116,79.7781167 412.596,92.0521167 406.947,113.676117 C406.947,113.676117 408.474,119.247117 417.041,116.281117 C424.415,113.729117 424.581,111.734117 431.041,110.095117 C440.579,107.676117 443.088,106.188117 443.088,106.188117 C438.078,98.6601167 438.969,86.9031167 438.969,86.9031167 C438.969,86.9031167 444.649,81.4661167 442.215,75.9091167 C438.7,67.8871167 437.523,56.5381167 437.523,56.5381167 L432.627,55.2971167 C432.627,55.2971167 430.017,58.4891167 428.717,59.4621167 C427.416,60.4351167 426.46,59.8811167 426.46,59.8811167" id="Fill-90" fill="#5DA4CE"></path>
                <path d="M430.48,54.7941167 C430.48,54.7941167 429.356,58.9731167 426.46,59.8811167 C426.46,59.8811167 427.593,65.6061167 430.304,64.6111167 C434.109,63.2151167 432.627,55.2971167 432.627,55.2971167 L430.48,54.7941167" id="Fill-91" fill="#FFFFFE"></path>
                <path d="M413.363,55.0351167 C413.363,55.0351167 415.17,63.7801167 420.001,64.4871167 C424.832,65.1951167 426.46,59.8811167 426.46,59.8811167 C426.46,59.8811167 416.22,56.8771167 415.218,53.7441167 L413.363,55.0351167" id="Fill-92" fill="#FFFFFE"></path>
                <path d="M421.876,28.1881167 C420.985,28.2461167 420.328,32.4601167 420.237,34.8111167 C420.148,37.1621167 416.628,39.0171167 418.182,44.1901167 C419.735,49.3621167 419.525,54.3571167 421.607,60.0261167 C423.69,65.6941167 421.096,67.7701167 419.971,69.7221167 C419.971,69.7221167 415.513,64.8391167 414.005,62.3921167 C411.588,58.4681167 407.632,59.5361167 407.632,59.5361167 C407.632,59.5361167 414.438,46.3191167 414.207,42.7551167 C413.978,39.1911167 413.348,33.7491167 416.185,30.4961167 C419.022,27.2421167 421.876,28.1881167 421.876,28.1881167" id="Fill-93" fill="#351B19"></path>
                <path d="M418.295,38.7431167 C418.295,38.7431167 416.403,36.6711167 415.153,36.9871167 C413.905,37.3031167 413.826,39.1761167 414.777,40.7111167 C415.729,42.2451167 419.249,43.1121167 419.249,43.1121167 L418.295,38.7431167" id="Fill-94" fill="#F4BFA7"></path>
                <path d="M422.6,34.7091167 C424.316,34.8641167 425.291,34.6151167 427.971,34.3211167 C431.4,33.9431167 432.847,34.8231167 432.847,34.8231167 L431.55,29.1181167 C431.55,29.1181167 427.545,26.8931167 424.708,26.9131167 C421.097,26.9371167 417.937,28.3201167 419.726,29.4871167 C421.62,30.7221167 422.6,34.7091167 422.6,34.7091167" id="Fill-95" fill="#351B19"></path>
                <path d="M413.084,67.5671167 C412.472,74.7241167 410.366,95.1181167 410.366,95.1181167 C416.878,100.816117 426.097,110.290117 426.097,110.290117 C426.097,110.290117 423.474,115.464117 422.351,114.586117 C413.378,107.572117 403.122,103.421117 402.39,98.5371167 C401.187,90.5171167 400.772,70.3371167 403.726,63.7731167 C406.002,58.7151167 413.733,59.9751167 413.084,67.5671167" id="Fill-96" fill="#F4BFA7"></path>
                <path d="M430.049,110.922117 C432.776,111.947117 434.492,112.950117 434.329,113.967117 C434.217,114.668117 431.89,113.387117 430.497,113.432117 C430.955,114.420117 432.222,115.903117 433.811,116.684117 C435.612,117.571117 436.62,118.802117 435.656,119.844117 C434.692,120.885117 432.914,122.345117 431.754,121.811117 C430.594,121.276117 426.478,118.402117 424.927,117.606117 C423.377,116.810117 422.757,114.862117 421.959,114.325117 C421.161,113.790117 423.42,109.691117 423.42,109.691117 C423.849,109.810117 426.097,110.290117 426.097,110.290117 C426.097,110.290117 427.865,110.552117 428.326,110.476117 C428.787,110.400117 430.049,110.922117 430.049,110.922117" id="Fill-97" fill="#F4BFA7"></path>
                <polygon id="Fill-98" fill="#1E3B49" points="0 248.112117 609.506 248.112117 609.506 247.112117 0 247.112117"></polygon>
            </g>
        </g>
    </g>
</svg>